<svg xmlns="http://www.w3.org/2000/svg" viewBox="0 0 40 40" width="40" height="40">
  <circle cx="20" cy="20" r="19" fill="#1a0f00" stroke="#c8963e" stroke-width="1.5"/>
  <g fill="none" stroke="#c8963e" stroke-width="2" stroke-linecap="round" stroke-linejoin="round">
    <path d="M22 10 C24 8, 30 8, 31 12 C32 15, 30 17, 29 19 C31 20, 33 22, 33 25 C33 30, 29 34, 24 35 C21 35.5, 18 34, 16 32" />
    <path d="M22 10 C20 9, 17 10, 15 13 C13 16, 13 20, 14 23 C15 26, 16 32, 16 32" />
    <path d="M16 32 C14 34, 12 37, 13 39 C14 40.5, 16 40, 17 39 C18 38, 18 36, 19 35" />
    <circle cx="26" cy="17" r="1.5" fill="#c8963e" stroke="none" />
  </g>
</svg>
